<svg width="16" height="16" viewBox="0 0 16 16" fill="none" xmlns="http://www.w3.org/2000/svg">
<rect width="16" height="16" rx="8" fill="black"/>
<path d="M8.00034 1.33334C9.131 1.3334 10.1954 1.61586 11.1283 2.11264C10.645 2.5953 10.347 3.26337 10.347 4.00034C10.3472 5.47284 11.5405 6.66619 13.013 6.66635C13.5355 6.66635 14.0215 6.51388 14.433 6.25424C14.5837 6.81095 14.6664 7.39595 14.6664 8.00034L14.6576 8.34311C14.479 11.8654 11.567 14.6662 8.00034 14.6664L7.65659 14.6576C5.71474 14.559 3.99314 13.6289 2.83823 12.2171C3.53562 12.0446 4.05307 11.4171 4.05307 10.6664C4.0529 9.78288 3.33695 9.06681 2.45346 9.06674C2.08724 9.06674 1.75047 9.1908 1.4808 9.3978C1.38464 8.94712 1.33337 8.47971 1.33334 8.00034C1.33334 4.31844 4.31844 1.33334 8.00034 1.33334ZM8.00034 4.66635C6.15939 4.66635 4.66635 6.15939 4.66635 8.00034L4.67123 8.17123C4.76036 9.93261 6.21682 11.3333 8.00034 11.3333C9.78372 11.3332 11.2403 9.93251 11.3294 8.17123L11.3333 8.00034L11.3294 7.82846C11.243 6.12394 9.87579 4.75749 8.17123 4.67123L8.00034 4.66635Z" fill="#F5F5F5"/>
</svg>
