<svg width="491" height="232" viewBox="0 0 491 232" fill="none" xmlns="http://www.w3.org/2000/svg">
<path d="M65.6583 107.133L89.8356 17.6997L119.275 17.9053L142.2 107.668L124.793 107.546L120.067 87.8006L88.0675 87.577L83.0659 107.255L65.6583 107.133ZM92.1445 71.9891L116.208 72.1572L105.633 28.4343L103.329 28.4182L92.1445 71.9891ZM149.341 107.718L173.519 18.2843L202.958 18.4899L225.883 108.252L208.476 108.131L203.75 88.3852L171.75 88.1616L166.749 107.839L149.341 107.718ZM175.827 72.5737L199.891 72.7418L189.316 29.0189L187.012 29.0028L175.827 72.5737ZM239.168 108.345L239.794 18.7472L278.705 19.0191C284.337 19.0584 289.237 20.074 293.404 22.0658C297.572 24.0576 300.795 26.8536 303.074 30.4536C305.353 34.0536 306.475 38.2855 306.441 43.1494L306.43 44.6854C306.393 50.0612 305.082 54.4042 302.499 57.7142C299.916 61.0243 296.742 63.4342 292.977 64.9439L292.96 67.2478C296.373 67.4423 299.009 68.6555 300.871 70.8872C302.734 73.0336 303.652 75.8987 303.627 79.4826L303.423 108.794L286.527 108.676L286.715 81.7966C286.729 79.7486 286.186 78.0808 285.086 76.7931C284.071 75.5059 282.326 74.8537 279.851 74.8364L256.3 74.6719L256.064 108.463L239.168 108.345ZM256.407 59.3123L276.631 59.4536C280.641 59.4816 283.763 58.4367 285.997 56.3189C288.316 54.1164 289.488 51.2232 289.513 47.6393L289.522 46.3593C289.547 42.7754 288.458 39.909 286.254 37.7603C284.051 35.5261 280.902 34.3948 276.806 34.3662L256.582 34.2249L256.407 59.3123ZM322.601 108.928L323.227 19.3301L354.586 19.5491L369.528 97.7354L371.832 97.7515L387.865 19.7816L419.225 20.0007L418.599 109.599L402.215 109.484L402.754 32.3019L400.45 32.2858L384.552 109.361L356.648 109.166L341.828 31.8763L339.524 31.8602L338.985 109.042L322.601 108.928Z" fill="#F5F5F5"/>
<path d="M64.5525 158.473H61.4133L70.4929 133.746H73.5838L82.6633 158.473H79.5241L72.1349 137.658H71.9417L64.5525 158.473ZM65.7116 148.814H78.365V151.47H65.7116V148.814ZM101.216 150.891V139.928H104.065V158.473H101.216V155.334H101.023C100.588 156.276 99.912 157.077 98.9944 157.737C98.0768 158.389 96.9177 158.715 95.5171 158.715C94.3581 158.715 93.3278 158.461 92.4262 157.954C91.5247 157.439 90.8164 156.666 90.3012 155.636C89.7861 154.598 89.5285 153.29 89.5285 151.712V139.928H92.3779V151.519C92.3779 152.871 92.7563 153.95 93.5129 154.754C94.2776 155.559 95.2515 155.962 96.4348 155.962C97.1431 155.962 97.8635 155.781 98.596 155.419C99.3365 155.056 99.9563 154.501 100.455 153.752C100.962 153.004 101.216 152.05 101.216 150.891ZM120.75 139.928V142.343H111.139V139.928H120.75ZM113.94 135.485H116.789V153.161C116.789 153.966 116.906 154.569 117.14 154.972C117.381 155.366 117.687 155.632 118.057 155.769C118.436 155.897 118.834 155.962 119.253 155.962C119.566 155.962 119.824 155.946 120.025 155.914C120.227 155.873 120.387 155.841 120.508 155.817L121.088 158.377C120.895 158.449 120.625 158.522 120.279 158.594C119.933 158.674 119.494 158.715 118.963 158.715C118.158 158.715 117.369 158.542 116.596 158.196C115.832 157.849 115.196 157.322 114.689 156.614C114.19 155.906 113.94 155.012 113.94 153.933V135.485ZM135.771 158.86C134.097 158.86 132.628 158.461 131.364 157.664C130.108 156.867 129.126 155.753 128.418 154.32C127.718 152.887 127.367 151.213 127.367 149.297C127.367 147.365 127.718 145.679 128.418 144.238C129.126 142.797 130.108 141.678 131.364 140.882C132.628 140.085 134.097 139.686 135.771 139.686C137.445 139.686 138.91 140.085 140.166 140.882C141.429 141.678 142.411 142.797 143.112 144.238C143.82 145.679 144.174 147.365 144.174 149.297C144.174 151.213 143.82 152.887 143.112 154.32C142.411 155.753 141.429 156.867 140.166 157.664C138.91 158.461 137.445 158.86 135.771 158.86ZM135.771 156.3C137.043 156.3 138.089 155.974 138.91 155.322C139.731 154.67 140.339 153.813 140.733 152.75C141.128 151.688 141.325 150.537 141.325 149.297C141.325 148.058 141.128 146.902 140.733 145.832C140.339 144.761 139.731 143.896 138.91 143.236C138.089 142.576 137.043 142.246 135.771 142.246C134.499 142.246 133.453 142.576 132.632 143.236C131.811 143.896 131.203 144.761 130.808 145.832C130.414 146.902 130.217 148.058 130.217 149.297C130.217 150.537 130.414 151.688 130.808 152.75C131.203 153.813 131.811 154.67 132.632 155.322C133.453 155.974 134.499 156.3 135.771 156.3ZM154.773 147.317V158.473H151.924V139.928H154.677V142.826H154.918C155.353 141.884 156.013 141.127 156.898 140.556C157.784 139.976 158.927 139.686 160.327 139.686C161.583 139.686 162.682 139.944 163.623 140.459C164.565 140.966 165.298 141.739 165.821 142.777C166.344 143.808 166.606 145.111 166.606 146.689V158.473H163.756V146.882C163.756 145.425 163.378 144.29 162.621 143.477C161.865 142.656 160.826 142.246 159.506 142.246C158.597 142.246 157.784 142.443 157.067 142.838C156.359 143.232 155.8 143.808 155.389 144.564C154.978 145.321 154.773 146.238 154.773 147.317ZM182.747 158.86C181.072 158.86 179.603 158.461 178.34 157.664C177.084 156.867 176.102 155.753 175.394 154.32C174.693 152.887 174.343 151.213 174.343 149.297C174.343 147.365 174.693 145.679 175.394 144.238C176.102 142.797 177.084 141.678 178.34 140.882C179.603 140.085 181.072 139.686 182.747 139.686C184.421 139.686 185.886 140.085 187.141 140.882C188.405 141.678 189.387 142.797 190.087 144.238C190.796 145.679 191.15 147.365 191.15 149.297C191.15 151.213 190.796 152.887 190.087 154.32C189.387 155.753 188.405 156.867 187.141 157.664C185.886 158.461 184.421 158.86 182.747 158.86ZM182.747 156.3C184.018 156.3 185.065 155.974 185.886 155.322C186.707 154.67 187.315 153.813 187.709 152.75C188.103 151.688 188.301 150.537 188.301 149.297C188.301 148.058 188.103 146.902 187.709 145.832C187.315 144.761 186.707 143.896 185.886 143.236C185.065 142.576 184.018 142.246 182.747 142.246C181.475 142.246 180.428 142.576 179.607 143.236C178.786 143.896 178.179 144.761 177.784 145.832C177.39 146.902 177.193 148.058 177.193 149.297C177.193 150.537 177.39 151.688 177.784 152.75C178.179 153.813 178.786 154.67 179.607 155.322C180.428 155.974 181.475 156.3 182.747 156.3ZM198.9 158.473V139.928H201.652V142.826H201.894C202.28 141.835 202.904 141.067 203.765 140.519C204.627 139.964 205.661 139.686 206.868 139.686C208.092 139.686 209.11 139.964 209.923 140.519C210.744 141.067 211.384 141.835 211.843 142.826H212.036C212.511 141.868 213.223 141.107 214.173 140.544C215.123 139.972 216.262 139.686 217.59 139.686C219.248 139.686 220.604 140.205 221.659 141.244C222.713 142.274 223.241 143.88 223.241 146.061V158.473H220.391V146.061C220.391 144.693 220.017 143.715 219.268 143.127C218.52 142.54 217.638 142.246 216.624 142.246C215.32 142.246 214.31 142.64 213.593 143.429C212.877 144.21 212.519 145.2 212.519 146.399V158.473H209.621V145.772C209.621 144.717 209.279 143.868 208.595 143.224C207.911 142.572 207.029 142.246 205.951 142.246C205.21 142.246 204.518 142.443 203.874 142.838C203.238 143.232 202.723 143.779 202.329 144.48C201.942 145.172 201.749 145.973 201.749 146.882V158.473H198.9ZM239.384 158.86C237.71 158.86 236.241 158.461 234.978 157.664C233.722 156.867 232.74 155.753 232.031 154.32C231.331 152.887 230.981 151.213 230.981 149.297C230.981 147.365 231.331 145.679 232.031 144.238C232.74 142.797 233.722 141.678 234.978 140.882C236.241 140.085 237.71 139.686 239.384 139.686C241.059 139.686 242.524 140.085 243.779 140.882C245.043 141.678 246.025 142.797 246.725 144.238C247.434 145.679 247.788 147.365 247.788 149.297C247.788 151.213 247.434 152.887 246.725 154.32C246.025 155.753 245.043 156.867 243.779 157.664C242.524 158.461 241.059 158.86 239.384 158.86ZM239.384 156.3C240.656 156.3 241.703 155.974 242.524 155.322C243.345 154.67 243.952 153.813 244.347 152.75C244.741 151.688 244.938 150.537 244.938 149.297C244.938 148.058 244.741 146.902 244.347 145.832C243.952 144.761 243.345 143.896 242.524 143.236C241.703 142.576 240.656 142.246 239.384 142.246C238.113 142.246 237.066 142.576 236.245 143.236C235.424 143.896 234.817 144.761 234.422 145.832C234.028 146.902 233.831 148.058 233.831 149.297C233.831 150.537 234.028 151.688 234.422 152.75C234.817 153.813 235.424 154.67 236.245 155.322C237.066 155.974 238.113 156.3 239.384 156.3ZM267.225 150.891V139.928H270.074V158.473H267.225V155.334H267.032C266.597 156.276 265.921 157.077 265.003 157.737C264.086 158.389 262.927 158.715 261.526 158.715C260.367 158.715 259.337 158.461 258.435 157.954C257.534 157.439 256.825 156.666 256.31 155.636C255.795 154.598 255.537 153.29 255.537 151.712V139.928H258.387V151.519C258.387 152.871 258.765 153.95 259.522 154.754C260.287 155.559 261.261 155.962 262.444 155.962C263.152 155.962 263.872 155.781 264.605 155.419C265.345 155.056 265.965 154.501 266.464 153.752C266.971 153.004 267.225 152.05 267.225 150.891ZM291.83 144.081L289.27 144.806C289.109 144.379 288.872 143.964 288.558 143.562C288.252 143.152 287.833 142.813 287.302 142.548C286.771 142.282 286.091 142.149 285.262 142.149C284.127 142.149 283.181 142.411 282.424 142.934C281.676 143.449 281.301 144.105 281.301 144.902C281.301 145.611 281.559 146.17 282.074 146.58C282.589 146.991 283.394 147.333 284.489 147.607L287.242 148.283C288.9 148.685 290.135 149.301 290.948 150.13C291.761 150.951 292.168 152.01 292.168 153.306C292.168 154.368 291.862 155.318 291.25 156.155C290.646 156.992 289.801 157.652 288.715 158.135C287.628 158.618 286.364 158.86 284.923 158.86C283.032 158.86 281.466 158.449 280.227 157.628C278.987 156.807 278.202 155.608 277.872 154.03L280.577 153.354C280.834 154.352 281.321 155.101 282.038 155.6C282.762 156.099 283.708 156.348 284.875 156.348C286.203 156.348 287.258 156.067 288.039 155.503C288.827 154.932 289.222 154.247 289.222 153.451C289.222 152.807 288.996 152.267 288.546 151.833C288.095 151.39 287.403 151.06 286.469 150.843L283.378 150.118C281.68 149.716 280.432 149.092 279.635 148.247C278.846 147.393 278.452 146.327 278.452 145.047C278.452 144.001 278.746 143.075 279.333 142.27C279.929 141.465 280.738 140.833 281.76 140.375C282.79 139.916 283.958 139.686 285.262 139.686C287.097 139.686 288.538 140.089 289.584 140.894C290.638 141.699 291.387 142.761 291.83 144.081ZM314.22 158.473H311.081L320.16 133.746H323.251L332.331 158.473H329.192L321.802 137.658H321.609L314.22 158.473ZM315.379 148.814H328.033V151.47H315.379V148.814ZM346.73 158.86C344.992 158.86 343.494 158.449 342.239 157.628C340.983 156.807 340.017 155.676 339.341 154.235C338.665 152.794 338.327 151.148 338.327 149.297C338.327 147.414 338.673 145.751 339.365 144.311C340.065 142.862 341.039 141.731 342.287 140.918C343.543 140.097 345.008 139.686 346.682 139.686C347.986 139.686 349.161 139.928 350.207 140.411C351.254 140.894 352.111 141.57 352.779 142.439C353.447 143.308 353.862 144.323 354.023 145.482H351.173C350.956 144.637 350.473 143.888 349.724 143.236C348.984 142.576 347.986 142.246 346.73 142.246C345.619 142.246 344.645 142.536 343.808 143.115C342.979 143.687 342.331 144.496 341.864 145.542C341.406 146.58 341.176 147.8 341.176 149.201C341.176 150.633 341.402 151.881 341.852 152.943C342.311 154.006 342.955 154.831 343.784 155.419C344.621 156.006 345.603 156.3 346.73 156.3C347.471 156.3 348.143 156.171 348.747 155.914C349.35 155.656 349.861 155.286 350.28 154.803C350.698 154.32 350.996 153.74 351.173 153.064H354.023C353.862 154.159 353.463 155.145 352.827 156.022C352.2 156.892 351.367 157.584 350.328 158.099C349.298 158.606 348.099 158.86 346.73 158.86ZM370.334 139.928V142.343H360.723V139.928H370.334ZM363.524 135.485H366.373V153.161C366.373 153.966 366.49 154.569 366.724 154.972C366.965 155.366 367.271 155.632 367.641 155.769C368.019 155.897 368.418 155.962 368.836 155.962C369.15 155.962 369.408 155.946 369.609 155.914C369.81 155.873 369.971 155.841 370.092 155.817L370.672 158.377C370.479 158.449 370.209 158.522 369.863 158.594C369.517 158.674 369.078 158.715 368.547 158.715C367.742 158.715 366.953 158.542 366.18 158.196C365.416 157.849 364.78 157.322 364.273 156.614C363.774 155.906 363.524 155.012 363.524 153.933V135.485ZM378.02 158.473V139.928H380.869V158.473H378.02ZM379.469 136.837C378.913 136.837 378.434 136.648 378.032 136.269C377.637 135.891 377.44 135.436 377.44 134.905C377.44 134.374 377.637 133.919 378.032 133.541C378.434 133.162 378.913 132.973 379.469 132.973C380.024 132.973 380.499 133.162 380.893 133.541C381.296 133.919 381.497 134.374 381.497 134.905C381.497 135.436 381.296 135.891 380.893 136.269C380.499 136.648 380.024 136.837 379.469 136.837ZM397.022 158.86C395.348 158.86 393.879 158.461 392.615 157.664C391.36 156.867 390.378 155.753 389.669 154.32C388.969 152.887 388.619 151.213 388.619 149.297C388.619 147.365 388.969 145.679 389.669 144.238C390.378 142.797 391.36 141.678 392.615 140.882C393.879 140.085 395.348 139.686 397.022 139.686C398.697 139.686 400.161 140.085 401.417 140.882C402.681 141.678 403.663 142.797 404.363 144.238C405.072 145.679 405.426 147.365 405.426 149.297C405.426 151.213 405.072 152.887 404.363 154.32C403.663 155.753 402.681 156.867 401.417 157.664C400.161 158.461 398.697 158.86 397.022 158.86ZM397.022 156.3C398.294 156.3 399.34 155.974 400.161 155.322C400.983 154.67 401.59 153.813 401.985 152.75C402.379 151.688 402.576 150.537 402.576 149.297C402.576 148.058 402.379 146.902 401.985 145.832C401.59 144.761 400.983 143.896 400.161 143.236C399.34 142.576 398.294 142.246 397.022 142.246C395.751 142.246 394.704 142.576 393.883 143.236C393.062 143.896 392.454 144.761 392.06 145.832C391.666 146.902 391.468 148.058 391.468 149.297C391.468 150.537 391.666 151.688 392.06 152.75C392.454 153.813 393.062 154.67 393.883 155.322C394.704 155.974 395.751 156.3 397.022 156.3ZM416.025 147.317V158.473H413.175V139.928H415.928V142.826H416.17C416.604 141.884 417.264 141.127 418.15 140.556C419.035 139.976 420.178 139.686 421.579 139.686C422.834 139.686 423.933 139.944 424.875 140.459C425.817 140.966 426.549 141.739 427.072 142.777C427.595 143.808 427.857 145.111 427.857 146.689V158.473H425.008V146.882C425.008 145.425 424.629 144.29 423.873 143.477C423.116 142.656 422.078 142.246 420.758 142.246C419.848 142.246 419.035 142.443 418.319 142.838C417.61 143.232 417.051 143.808 416.64 144.564C416.23 145.321 416.025 146.238 416.025 147.317Z" fill="#F5F5F5"/>
<path d="M61.9864 207.473V182.746H70.3415C72.2733 182.746 73.859 183.076 75.0986 183.736C76.3382 184.388 77.2558 185.285 77.8514 186.428C78.4471 187.571 78.7449 188.871 78.7449 190.328C78.7449 191.785 78.4471 193.077 77.8514 194.204C77.2558 195.331 76.3422 196.216 75.1107 196.86C73.8791 197.496 72.3055 197.814 70.3898 197.814H63.6284V195.11H70.2932C71.6133 195.11 72.6758 194.916 73.4807 194.53C74.2937 194.144 74.8813 193.596 75.2435 192.888C75.6138 192.172 75.7989 191.318 75.7989 190.328C75.7989 189.338 75.6138 188.473 75.2435 187.732C74.8732 186.992 74.2816 186.42 73.4686 186.018C72.6557 185.607 71.5811 185.402 70.2449 185.402H64.9807V207.473H61.9864ZM73.6256 196.365L79.7108 207.473H76.2335L70.2449 196.365H73.6256ZM96.3956 199.891V188.928H99.245V207.473H96.3956V204.334H96.2024C95.7677 205.276 95.0916 206.077 94.174 206.737C93.2564 207.389 92.0973 207.715 90.6967 207.715C89.5376 207.715 88.5073 207.461 87.6058 206.954C86.7043 206.439 85.9959 205.666 85.4808 204.636C84.9656 203.598 84.7081 202.29 84.7081 200.712V188.928H87.5575V200.519C87.5575 201.871 87.9358 202.95 88.6924 203.754C89.4571 204.559 90.4311 204.962 91.6143 204.962C92.3227 204.962 93.0431 204.781 93.7755 204.419C94.5161 204.056 95.1359 203.501 95.6349 202.752C96.142 202.004 96.3956 201.05 96.3956 199.891ZM108.673 196.317V207.473H105.824V188.928H108.577V191.826H108.818C109.253 190.884 109.913 190.127 110.798 189.556C111.684 188.976 112.827 188.686 114.227 188.686C115.483 188.686 116.582 188.944 117.524 189.459C118.465 189.966 119.198 190.739 119.721 191.777C120.244 192.808 120.506 194.111 120.506 195.689V207.473H117.656V195.882C117.656 194.425 117.278 193.29 116.521 192.477C115.765 191.656 114.726 191.246 113.406 191.246C112.497 191.246 111.684 191.443 110.967 191.838C110.259 192.232 109.7 192.808 109.289 193.564C108.879 194.321 108.673 195.238 108.673 196.317ZM135.138 188.928V191.343H125.527V188.928H135.138ZM128.328 184.485H131.178V202.161C131.178 202.966 131.294 203.569 131.528 203.972C131.769 204.366 132.075 204.632 132.445 204.769C132.824 204.897 133.222 204.962 133.641 204.962C133.955 204.962 134.212 204.946 134.414 204.914C134.615 204.873 134.776 204.841 134.896 204.817L135.476 207.377C135.283 207.449 135.013 207.522 134.667 207.594C134.321 207.674 133.882 207.715 133.351 207.715C132.546 207.715 131.757 207.542 130.985 207.196C130.22 206.849 129.584 206.322 129.077 205.614C128.578 204.906 128.328 204.012 128.328 202.933V184.485ZM140.784 207.473V188.928H143.634V207.473H140.784ZM142.233 185.837C141.678 185.837 141.199 185.648 140.796 185.269C140.402 184.891 140.205 184.436 140.205 183.905C140.205 183.374 140.402 182.919 140.796 182.541C141.199 182.162 141.678 181.973 142.233 181.973C142.788 181.973 143.263 182.162 143.658 182.541C144.06 182.919 144.261 183.374 144.261 183.905C144.261 184.436 144.06 184.891 143.658 185.269C143.263 185.648 142.788 185.837 142.233 185.837ZM150.213 207.473V188.928H152.965V191.826H153.207C153.593 190.835 154.217 190.067 155.078 189.519C155.94 188.964 156.974 188.686 158.181 188.686C159.405 188.686 160.423 188.964 161.236 189.519C162.057 190.067 162.697 190.835 163.156 191.826H163.349C163.824 190.868 164.536 190.107 165.486 189.544C166.436 188.972 167.575 188.686 168.903 188.686C170.561 188.686 171.917 189.205 172.972 190.244C174.026 191.274 174.553 192.88 174.553 195.061V207.473H171.704V195.061C171.704 193.693 171.33 192.715 170.581 192.127C169.833 191.54 168.951 191.246 167.937 191.246C166.633 191.246 165.623 191.64 164.906 192.429C164.19 193.21 163.832 194.2 163.832 195.399V207.473H160.934V194.772C160.934 193.717 160.592 192.868 159.908 192.224C159.224 191.572 158.342 191.246 157.264 191.246C156.523 191.246 155.831 191.443 155.187 191.838C154.551 192.232 154.036 192.779 153.642 193.48C153.255 194.172 153.062 194.973 153.062 195.882V207.473H150.213ZM188.899 207.86C187.112 207.86 185.571 207.465 184.275 206.676C182.987 205.879 181.993 204.769 181.292 203.344C180.6 201.911 180.254 200.245 180.254 198.345C180.254 196.446 180.6 194.772 181.292 193.323C181.993 191.866 182.967 190.731 184.214 189.918C185.47 189.097 186.935 188.686 188.609 188.686C189.575 188.686 190.529 188.847 191.471 189.169C192.412 189.491 193.27 190.014 194.042 190.739C194.815 191.455 195.431 192.405 195.89 193.588C196.348 194.772 196.578 196.228 196.578 197.959V199.166H182.282V196.703H193.68C193.68 195.657 193.471 194.723 193.052 193.902C192.642 193.081 192.054 192.433 191.289 191.958C190.533 191.483 189.639 191.246 188.609 191.246C187.474 191.246 186.492 191.528 185.663 192.091C184.842 192.647 184.21 193.371 183.767 194.264C183.325 195.158 183.103 196.116 183.103 197.138V198.78C183.103 200.181 183.345 201.368 183.828 202.342C184.319 203.308 184.999 204.044 185.868 204.551C186.738 205.05 187.748 205.3 188.899 205.3C189.647 205.3 190.324 205.195 190.927 204.986C191.539 204.769 192.066 204.447 192.509 204.02C192.952 203.585 193.294 203.046 193.535 202.402L196.288 203.175C195.998 204.109 195.511 204.93 194.827 205.638C194.143 206.338 193.298 206.886 192.292 207.28C191.285 207.666 190.155 207.86 188.899 207.86ZM213.581 182.746H217.155L225.559 203.272H225.848L234.252 182.746H237.826V207.473H235.024V188.686H234.783L227.056 207.473H224.351L216.624 188.686H216.382V207.473H213.581V182.746ZM250.26 207.908C249.085 207.908 248.019 207.687 247.061 207.244C246.103 206.793 245.342 206.145 244.779 205.3C244.215 204.447 243.934 203.416 243.934 202.209C243.934 201.147 244.143 200.285 244.561 199.625C244.98 198.957 245.539 198.434 246.24 198.056C246.94 197.677 247.713 197.396 248.558 197.21C249.411 197.017 250.268 196.864 251.13 196.752C252.257 196.607 253.17 196.498 253.87 196.426C254.579 196.345 255.094 196.212 255.416 196.027C255.746 195.842 255.911 195.52 255.911 195.061V194.965C255.911 193.773 255.585 192.848 254.933 192.188C254.289 191.528 253.311 191.198 251.999 191.198C250.639 191.198 249.572 191.495 248.799 192.091C248.027 192.687 247.483 193.323 247.169 193.999L244.465 193.033C244.948 191.906 245.592 191.029 246.397 190.401C247.21 189.765 248.095 189.322 249.053 189.073C250.019 188.815 250.969 188.686 251.902 188.686C252.498 188.686 253.182 188.759 253.955 188.904C254.736 189.04 255.488 189.326 256.213 189.761C256.945 190.196 257.553 190.852 258.036 191.729C258.519 192.606 258.76 193.781 258.76 195.254V207.473H255.911V204.962H255.766C255.573 205.364 255.251 205.795 254.8 206.254C254.349 206.713 253.75 207.103 253.001 207.425C252.252 207.747 251.339 207.908 250.26 207.908ZM250.695 205.348C251.822 205.348 252.772 205.127 253.544 204.684C254.325 204.241 254.913 203.67 255.307 202.97C255.71 202.269 255.911 201.533 255.911 200.76V198.152C255.79 198.297 255.525 198.43 255.114 198.551C254.712 198.663 254.245 198.764 253.713 198.852C253.19 198.933 252.679 199.005 252.18 199.07C251.689 199.126 251.291 199.174 250.985 199.215C250.244 199.311 249.552 199.468 248.908 199.686C248.272 199.895 247.757 200.213 247.363 200.639C246.976 201.058 246.783 201.629 246.783 202.354C246.783 203.344 247.149 204.093 247.882 204.6C248.622 205.099 249.56 205.348 250.695 205.348ZM268.171 196.317V207.473H265.321V188.928H268.074V191.826H268.315C268.75 190.884 269.41 190.127 270.296 189.556C271.181 188.976 272.324 188.686 273.725 188.686C274.98 188.686 276.079 188.944 277.021 189.459C277.962 189.966 278.695 190.739 279.218 191.777C279.741 192.808 280.003 194.111 280.003 195.689V207.473H277.154V195.882C277.154 194.425 276.775 193.29 276.019 192.477C275.262 191.656 274.224 191.246 272.904 191.246C271.994 191.246 271.181 191.443 270.465 191.838C269.756 192.232 269.197 192.808 268.786 193.564C268.376 194.321 268.171 195.238 268.171 196.317ZM292.027 207.908C290.852 207.908 289.785 207.687 288.828 207.244C287.87 206.793 287.109 206.145 286.546 205.3C285.982 204.447 285.7 203.416 285.7 202.209C285.7 201.147 285.91 200.285 286.328 199.625C286.747 198.957 287.306 198.434 288.007 198.056C288.707 197.677 289.48 197.396 290.325 197.21C291.178 197.017 292.035 196.864 292.897 196.752C294.023 196.607 294.937 196.498 295.637 196.426C296.346 196.345 296.861 196.212 297.183 196.027C297.513 195.842 297.678 195.52 297.678 195.061V194.965C297.678 193.773 297.352 192.848 296.7 192.188C296.056 191.528 295.078 191.198 293.766 191.198C292.406 191.198 291.339 191.495 290.566 192.091C289.794 192.687 289.25 193.323 288.936 193.999L286.232 193.033C286.715 191.906 287.359 191.029 288.164 190.401C288.977 189.765 289.862 189.322 290.82 189.073C291.786 188.815 292.736 188.686 293.669 188.686C294.265 188.686 294.949 188.759 295.722 188.904C296.503 189.04 297.255 189.326 297.98 189.761C298.712 190.196 299.32 190.852 299.803 191.729C300.286 192.606 300.527 193.781 300.527 195.254V207.473H297.678V204.962H297.533C297.34 205.364 297.018 205.795 296.567 206.254C296.116 206.713 295.517 207.103 294.768 207.425C294.019 207.747 293.106 207.908 292.027 207.908ZM292.462 205.348C293.589 205.348 294.539 205.127 295.311 204.684C296.092 204.241 296.68 203.67 297.074 202.97C297.477 202.269 297.678 201.533 297.678 200.76V198.152C297.557 198.297 297.291 198.43 296.881 198.551C296.478 198.663 296.012 198.764 295.48 198.852C294.957 198.933 294.446 199.005 293.947 199.07C293.456 199.126 293.057 199.174 292.752 199.215C292.011 199.311 291.319 199.468 290.675 199.686C290.039 199.895 289.524 200.213 289.129 200.639C288.743 201.058 288.55 201.629 288.55 202.354C288.55 203.344 288.916 204.093 289.649 204.6C290.389 205.099 291.327 205.348 292.462 205.348ZM313.214 214.814C311.837 214.814 310.654 214.637 309.664 214.283C308.674 213.937 307.849 213.478 307.189 212.906C306.537 212.343 306.018 211.739 305.631 211.095L307.901 209.502C308.159 209.84 308.485 210.226 308.879 210.661C309.274 211.103 309.813 211.486 310.497 211.808C311.189 212.138 312.095 212.303 313.214 212.303C314.711 212.303 315.947 211.941 316.92 211.216C317.894 210.492 318.381 209.357 318.381 207.811V204.044H318.14C317.931 204.382 317.633 204.801 317.246 205.3C316.868 205.791 316.321 206.23 315.604 206.616C314.896 206.994 313.938 207.183 312.731 207.183C311.234 207.183 309.889 206.829 308.698 206.121C307.515 205.413 306.577 204.382 305.885 203.03C305.201 201.678 304.859 200.036 304.859 198.104C304.859 196.204 305.193 194.55 305.861 193.142C306.529 191.725 307.459 190.63 308.65 189.857C309.841 189.077 311.218 188.686 312.779 188.686C313.987 188.686 314.944 188.888 315.653 189.29C316.369 189.684 316.916 190.135 317.295 190.642C317.681 191.141 317.979 191.552 318.188 191.874H318.478V188.928H321.231V208.004C321.231 209.598 320.869 210.894 320.144 211.892C319.428 212.898 318.462 213.635 317.246 214.102C316.039 214.577 314.695 214.814 313.214 214.814ZM313.117 204.624C314.26 204.624 315.226 204.362 316.015 203.839C316.804 203.316 317.403 202.563 317.814 201.581C318.224 200.599 318.43 199.424 318.43 198.056C318.43 196.719 318.228 195.54 317.826 194.518C317.424 193.496 316.828 192.695 316.039 192.115C315.25 191.536 314.276 191.246 313.117 191.246C311.91 191.246 310.904 191.552 310.099 192.164C309.302 192.775 308.702 193.596 308.3 194.627C307.905 195.657 307.708 196.8 307.708 198.056C307.708 199.344 307.909 200.482 308.312 201.473C308.722 202.455 309.326 203.227 310.123 203.791C310.928 204.346 311.926 204.624 313.117 204.624ZM335.582 207.86C333.795 207.86 332.254 207.465 330.958 206.676C329.67 205.879 328.676 204.769 327.976 203.344C327.284 201.911 326.937 200.245 326.937 198.345C326.937 196.446 327.284 194.772 327.976 193.323C328.676 191.866 329.65 190.731 330.898 189.918C332.153 189.097 333.618 188.686 335.293 188.686C336.258 188.686 337.212 188.847 338.154 189.169C339.096 189.491 339.953 190.014 340.726 190.739C341.499 191.455 342.114 192.405 342.573 193.588C343.032 194.772 343.261 196.228 343.261 197.959V199.166H328.966V196.703H340.364C340.364 195.657 340.154 194.723 339.736 193.902C339.325 193.081 338.738 192.433 337.973 191.958C337.216 191.483 336.323 191.246 335.293 191.246C334.158 191.246 333.176 191.528 332.347 192.091C331.525 192.647 330.894 193.371 330.451 194.264C330.008 195.158 329.787 196.116 329.787 197.138V198.78C329.787 200.181 330.028 201.368 330.511 202.342C331.002 203.308 331.682 204.044 332.552 204.551C333.421 205.05 334.431 205.3 335.582 205.3C336.331 205.3 337.007 205.195 337.611 204.986C338.222 204.769 338.75 204.447 339.192 204.02C339.635 203.585 339.977 203.046 340.219 202.402L342.972 203.175C342.682 204.109 342.195 204.93 341.511 205.638C340.826 206.338 339.981 206.886 338.975 207.28C337.969 207.666 336.838 207.86 335.582 207.86ZM348.956 207.473V188.928H351.709V191.826H351.95C352.336 190.835 352.96 190.067 353.822 189.519C354.683 188.964 355.717 188.686 356.925 188.686C358.148 188.686 359.166 188.964 359.979 189.519C360.8 190.067 361.44 190.835 361.899 191.826H362.092C362.567 190.868 363.279 190.107 364.229 189.544C365.179 188.972 366.318 188.686 367.646 188.686C369.304 188.686 370.661 189.205 371.715 190.244C372.769 191.274 373.297 192.88 373.297 195.061V207.473H370.447V195.061C370.447 193.693 370.073 192.715 369.324 192.127C368.576 191.54 367.694 191.246 366.68 191.246C365.376 191.246 364.366 191.64 363.65 192.429C362.933 193.21 362.575 194.2 362.575 195.399V207.473H359.677V194.772C359.677 193.717 359.335 192.868 358.651 192.224C357.967 191.572 357.086 191.246 356.007 191.246C355.266 191.246 354.574 191.443 353.93 191.838C353.294 192.232 352.779 192.779 352.385 193.48C351.998 194.172 351.805 194.973 351.805 195.882V207.473H348.956ZM387.642 207.86C385.855 207.86 384.314 207.465 383.018 206.676C381.73 205.879 380.736 204.769 380.036 203.344C379.343 201.911 378.997 200.245 378.997 198.345C378.997 196.446 379.343 194.772 380.036 193.323C380.736 191.866 381.71 190.731 382.958 189.918C384.213 189.097 385.678 188.686 387.352 188.686C388.318 188.686 389.272 188.847 390.214 189.169C391.156 189.491 392.013 190.014 392.786 190.739C393.558 191.455 394.174 192.405 394.633 193.588C395.092 194.772 395.321 196.228 395.321 197.959V199.166H381.026V196.703H392.423C392.423 195.657 392.214 194.723 391.796 193.902C391.385 193.081 390.797 192.433 390.033 191.958C389.276 191.483 388.383 191.246 387.352 191.246C386.217 191.246 385.235 191.528 384.406 192.091C383.585 192.647 382.953 193.371 382.511 194.264C382.068 195.158 381.847 196.116 381.847 197.138V198.78C381.847 200.181 382.088 201.368 382.571 202.342C383.062 203.308 383.742 204.044 384.612 204.551C385.481 205.05 386.491 205.3 387.642 205.3C388.391 205.3 389.067 205.195 389.671 204.986C390.282 204.769 390.81 204.447 391.252 204.02C391.695 203.585 392.037 203.046 392.279 202.402L395.031 203.175C394.742 204.109 394.255 204.93 393.57 205.638C392.886 206.338 392.041 206.886 391.035 207.28C390.029 207.666 388.898 207.86 387.642 207.86ZM403.865 196.317V207.473H401.016V188.928H403.768V191.826H404.01C404.445 190.884 405.105 190.127 405.99 189.556C406.875 188.976 408.018 188.686 409.419 188.686C410.675 188.686 411.773 188.944 412.715 189.459C413.657 189.966 414.389 190.739 414.913 191.777C415.436 192.808 415.697 194.111 415.697 195.689V207.473H412.848V195.882C412.848 194.425 412.47 193.29 411.713 192.477C410.956 191.656 409.918 191.246 408.598 191.246C407.688 191.246 406.875 191.443 406.159 191.838C405.451 192.232 404.891 192.808 404.481 193.564C404.07 194.321 403.865 195.238 403.865 196.317ZM430.33 188.928V191.343H420.719V188.928H430.33ZM423.52 184.485H426.369V202.161C426.369 202.966 426.486 203.569 426.72 203.972C426.961 204.366 427.267 204.632 427.637 204.769C428.016 204.897 428.414 204.962 428.833 204.962C429.146 204.962 429.404 204.946 429.605 204.914C429.806 204.873 429.967 204.841 430.088 204.817L430.668 207.377C430.475 207.449 430.205 207.522 429.859 207.594C429.513 207.674 429.074 207.715 428.543 207.715C427.738 207.715 426.949 207.542 426.176 207.196C425.412 206.849 424.776 206.322 424.269 205.614C423.77 204.906 423.52 204.012 423.52 202.933V184.485Z" fill="#F5F5F5"/>
</svg>
