<svg width="761" height="107" viewBox="0 0 761 107" fill="none" xmlns="http://www.w3.org/2000/svg">
<path d="M0.158307 96.633L24.3356 7.19967L53.7749 7.40533L76.7004 97.1677L59.2929 97.0461L54.5667 77.3006L22.5675 77.077L17.5659 96.7546L0.158307 96.633ZM26.6445 61.4891L50.7079 61.6572L40.133 17.9343L37.8291 17.9182L26.6445 61.4891ZM83.8413 97.2176L108.019 7.78426L137.458 7.98991L160.383 97.7523L142.976 97.6307L138.25 77.8852L106.25 77.6616L101.249 97.3392L83.8413 97.2176ZM110.327 62.0737L134.391 62.2418L123.816 18.5189L121.512 18.5028L110.327 62.0737ZM173.668 97.8451L174.294 8.24724L213.205 8.51906C218.837 8.5584 223.737 9.57398 227.904 11.5658C232.072 13.5576 235.295 16.3536 237.574 19.9536C239.853 23.5536 240.975 27.7855 240.941 32.6494L240.93 34.1854C240.893 39.5612 239.582 43.9042 236.999 47.2142C234.416 50.5243 231.242 52.9341 227.477 54.4439L227.46 56.7478C230.873 56.9423 233.509 58.1554 235.371 60.3872C237.234 62.5336 238.152 65.3987 238.127 68.9826L237.923 98.2939L221.027 98.1759L221.215 71.2965C221.229 69.2486 220.686 67.5808 219.586 66.293C218.571 65.0059 216.826 64.3537 214.351 64.3364L190.8 64.1719L190.564 97.9631L173.668 97.8451ZM190.907 48.8123L211.131 48.9536C215.141 48.9816 218.263 47.9367 220.497 45.8189C222.816 43.6164 223.988 40.7232 224.013 37.1393L224.022 35.8593C224.047 32.2754 222.958 29.409 220.754 27.2603C218.551 25.0261 215.402 23.8948 211.306 23.8662L191.082 23.7249L190.907 48.8123ZM257.101 98.4279L257.727 8.83007L289.086 9.04914L304.028 87.2354L306.332 87.2515L322.365 9.28162L353.725 9.50068L353.099 99.0985L336.715 98.9841L337.254 21.8019L334.95 21.7858L319.052 98.8607L291.148 98.6657L276.328 21.3763L274.024 21.3602L273.485 98.5423L257.101 98.4279Z" fill="#F5F5F5"/>
<path d="M386.034 38.5H382.895L391.974 13.7727H395.065L404.145 38.5H401.006L393.616 17.6847H393.423L386.034 38.5ZM387.193 28.8409H399.846V31.4972H387.193V28.8409ZM422.697 30.9176V19.9545H425.547V38.5H422.697V35.3608H422.504C422.07 36.3026 421.393 37.1035 420.476 37.7635C419.558 38.4155 418.399 38.7415 416.999 38.7415C415.84 38.7415 414.809 38.4879 413.908 37.9808C413.006 37.4657 412.298 36.6929 411.783 35.6626C411.268 34.6243 411.01 33.3163 411.01 31.7386V19.9545H413.859V31.5455C413.859 32.8977 414.238 33.9763 414.994 34.7812C415.759 35.5862 416.733 35.9886 417.916 35.9886C418.625 35.9886 419.345 35.8075 420.077 35.4453C420.818 35.0831 421.438 34.5277 421.937 33.7791C422.444 33.0305 422.697 32.0767 422.697 30.9176ZM442.231 19.9545V22.3693H432.62V19.9545H442.231ZM435.421 15.5114H438.271V33.1875C438.271 33.9924 438.388 34.5961 438.621 34.9986C438.863 35.393 439.168 35.6586 439.539 35.7955C439.917 35.9242 440.315 35.9886 440.734 35.9886C441.048 35.9886 441.305 35.9725 441.507 35.9403C441.708 35.9001 441.869 35.8679 441.99 35.8438L442.569 38.4034C442.376 38.4759 442.106 38.5483 441.76 38.6207C441.414 38.7012 440.975 38.7415 440.444 38.7415C439.639 38.7415 438.85 38.5684 438.078 38.2223C437.313 37.8762 436.677 37.349 436.17 36.6406C435.671 35.9323 435.421 35.0388 435.421 33.9602V15.5114ZM457.252 38.8864C455.578 38.8864 454.109 38.4879 452.845 37.6911C451.59 36.8942 450.608 35.7794 449.899 34.3466C449.199 32.9138 448.849 31.2396 448.849 29.3239C448.849 27.392 449.199 25.7057 449.899 24.2649C450.608 22.8241 451.59 21.7053 452.845 20.9084C454.109 20.1115 455.578 19.7131 457.252 19.7131C458.926 19.7131 460.391 20.1115 461.647 20.9084C462.911 21.7053 463.893 22.8241 464.593 24.2649C465.301 25.7057 465.656 27.392 465.656 29.3239C465.656 31.2396 465.301 32.9138 464.593 34.3466C463.893 35.7794 462.911 36.8942 461.647 37.6911C460.391 38.4879 458.926 38.8864 457.252 38.8864ZM457.252 36.3267C458.524 36.3267 459.57 36.0007 460.391 35.3487C461.212 34.6967 461.82 33.8395 462.215 32.777C462.609 31.7145 462.806 30.5634 462.806 29.3239C462.806 28.0843 462.609 26.9292 462.215 25.8587C461.82 24.7881 461.212 23.9228 460.391 23.2628C459.57 22.6027 458.524 22.2727 457.252 22.2727C455.98 22.2727 454.934 22.6027 454.113 23.2628C453.292 23.9228 452.684 24.7881 452.29 25.8587C451.895 26.9292 451.698 28.0843 451.698 29.3239C451.698 30.5634 451.895 31.7145 452.29 32.777C452.684 33.8395 453.292 34.6967 454.113 35.3487C454.934 36.0007 455.98 36.3267 457.252 36.3267ZM476.255 27.3438V38.5H473.405V19.9545H476.158V22.8523H476.4C476.834 21.9105 477.494 21.1539 478.38 20.5824C479.265 20.0028 480.408 19.7131 481.809 19.7131C483.064 19.7131 484.163 19.9706 485.105 20.4858C486.047 20.9929 486.779 21.7656 487.302 22.804C487.825 23.8343 488.087 25.1383 488.087 26.7159V38.5H485.238V26.9091C485.238 25.4522 484.859 24.3172 484.103 23.5043C483.346 22.6832 482.308 22.2727 480.988 22.2727C480.078 22.2727 479.265 22.4699 478.549 22.8643C477.84 23.2588 477.281 23.8343 476.87 24.5909C476.46 25.3475 476.255 26.2652 476.255 27.3438ZM504.228 38.8864C502.554 38.8864 501.085 38.4879 499.821 37.6911C498.565 36.8942 497.583 35.7794 496.875 34.3466C496.175 32.9138 495.825 31.2396 495.825 29.3239C495.825 27.392 496.175 25.7057 496.875 24.2649C497.583 22.8241 498.565 21.7053 499.821 20.9084C501.085 20.1115 502.554 19.7131 504.228 19.7131C505.902 19.7131 507.367 20.1115 508.623 20.9084C509.887 21.7053 510.869 22.8241 511.569 24.2649C512.277 25.7057 512.631 27.392 512.631 29.3239C512.631 31.2396 512.277 32.9138 511.569 34.3466C510.869 35.7794 509.887 36.8942 508.623 37.6911C507.367 38.4879 505.902 38.8864 504.228 38.8864ZM504.228 36.3267C505.5 36.3267 506.546 36.0007 507.367 35.3487C508.188 34.6967 508.796 33.8395 509.19 32.777C509.585 31.7145 509.782 30.5634 509.782 29.3239C509.782 28.0843 509.585 26.9292 509.19 25.8587C508.796 24.7881 508.188 23.9228 507.367 23.2628C506.546 22.6027 505.5 22.2727 504.228 22.2727C502.956 22.2727 501.91 22.6027 501.089 23.2628C500.268 23.9228 499.66 24.7881 499.266 25.8587C498.871 26.9292 498.674 28.0843 498.674 29.3239C498.674 30.5634 498.871 31.7145 499.266 32.777C499.66 33.8395 500.268 34.6967 501.089 35.3487C501.91 36.0007 502.956 36.3267 504.228 36.3267ZM520.381 38.5V19.9545H523.134V22.8523H523.375C523.762 21.8622 524.386 21.0935 525.247 20.5462C526.108 19.9908 527.142 19.7131 528.35 19.7131C529.573 19.7131 530.592 19.9908 531.404 20.5462C532.226 21.0935 532.865 21.8622 533.324 22.8523H533.517C533.992 21.8944 534.705 21.1338 535.654 20.5703C536.604 19.9988 537.743 19.7131 539.071 19.7131C540.73 19.7131 542.086 20.2322 543.14 21.2706C544.195 22.3009 544.722 23.9067 544.722 26.0881V38.5H541.873V26.0881C541.873 24.7197 541.498 23.7417 540.75 23.1541C540.001 22.5665 539.12 22.2727 538.105 22.2727C536.801 22.2727 535.791 22.6671 535.075 23.456C534.359 24.2367 534 25.2268 534 26.4261V38.5H531.103V25.7983C531.103 24.7438 530.761 23.8946 530.076 23.2507C529.392 22.5987 528.511 22.2727 527.432 22.2727C526.692 22.2727 525.999 22.4699 525.355 22.8643C524.72 23.2588 524.204 23.8061 523.81 24.5064C523.424 25.1986 523.23 25.9995 523.23 26.9091V38.5H520.381ZM560.866 38.8864C559.192 38.8864 557.723 38.4879 556.459 37.6911C555.203 36.8942 554.221 35.7794 553.513 34.3466C552.813 32.9138 552.463 31.2396 552.463 29.3239C552.463 27.392 552.813 25.7057 553.513 24.2649C554.221 22.8241 555.203 21.7053 556.459 20.9084C557.723 20.1115 559.192 19.7131 560.866 19.7131C562.54 19.7131 564.005 20.1115 565.261 20.9084C566.525 21.7053 567.507 22.8241 568.207 24.2649C568.915 25.7057 569.269 27.392 569.269 29.3239C569.269 31.2396 568.915 32.9138 568.207 34.3466C567.507 35.7794 566.525 36.8942 565.261 37.6911C564.005 38.4879 562.54 38.8864 560.866 38.8864ZM560.866 36.3267C562.138 36.3267 563.184 36.0007 564.005 35.3487C564.826 34.6967 565.434 33.8395 565.828 32.777C566.223 31.7145 566.42 30.5634 566.42 29.3239C566.42 28.0843 566.223 26.9292 565.828 25.8587C565.434 24.7881 564.826 23.9228 564.005 23.2628C563.184 22.6027 562.138 22.2727 560.866 22.2727C559.594 22.2727 558.548 22.6027 557.727 23.2628C556.906 23.9228 556.298 24.7881 555.904 25.8587C555.509 26.9292 555.312 28.0843 555.312 29.3239C555.312 30.5634 555.509 31.7145 555.904 32.777C556.298 33.8395 556.906 34.6967 557.727 35.3487C558.548 36.0007 559.594 36.3267 560.866 36.3267ZM588.706 30.9176V19.9545H591.556V38.5H588.706V35.3608H588.513C588.079 36.3026 587.402 37.1035 586.485 37.7635C585.567 38.4155 584.408 38.7415 583.008 38.7415C581.848 38.7415 580.818 38.4879 579.917 37.9808C579.015 37.4657 578.307 36.6929 577.792 35.6626C577.277 34.6243 577.019 33.3163 577.019 31.7386V19.9545H579.868V31.5455C579.868 32.8977 580.247 33.9763 581.003 34.7812C581.768 35.5862 582.742 35.9886 583.925 35.9886C584.634 35.9886 585.354 35.8075 586.086 35.4453C586.827 35.0831 587.447 34.5277 587.946 33.7791C588.453 33.0305 588.706 32.0767 588.706 30.9176ZM613.311 24.108L610.751 24.8324C610.591 24.4058 610.353 23.9912 610.039 23.5888C609.733 23.1783 609.315 22.8402 608.783 22.5746C608.252 22.3089 607.572 22.1761 606.743 22.1761C605.608 22.1761 604.662 22.4377 603.906 22.9609C603.157 23.4761 602.783 24.1321 602.783 24.929C602.783 25.6373 603.04 26.1967 603.555 26.6072C604.071 27.0178 604.876 27.3598 605.97 27.6335L608.723 28.3097C610.381 28.7121 611.617 29.3279 612.43 30.157C613.243 30.978 613.649 32.0365 613.649 33.3324C613.649 34.3949 613.343 35.3447 612.732 36.1818C612.128 37.0189 611.283 37.679 610.196 38.1619C609.109 38.6449 607.846 38.8864 606.405 38.8864C604.513 38.8864 602.948 38.4759 601.708 37.6548C600.469 36.8338 599.684 35.6345 599.354 34.0568L602.058 33.3807C602.316 34.3788 602.803 35.1274 603.519 35.6264C604.244 36.1255 605.189 36.375 606.357 36.375C607.685 36.375 608.739 36.0933 609.52 35.5298C610.309 34.9583 610.703 34.2741 610.703 33.4773C610.703 32.8333 610.478 32.294 610.027 31.8594C609.576 31.4167 608.884 31.0866 607.95 30.8693L604.859 30.1449C603.161 29.7424 601.913 29.1186 601.117 28.2734C600.328 27.4202 599.933 26.3537 599.933 25.0739C599.933 24.0275 600.227 23.1018 600.815 22.2969C601.41 21.492 602.219 20.8601 603.242 20.4013C604.272 19.9425 605.439 19.7131 606.743 19.7131C608.578 19.7131 610.019 20.1155 611.065 20.9205C612.12 21.7254 612.868 22.7879 613.311 24.108ZM635.702 38.5H632.562L641.642 13.7727H644.733L653.812 38.5H650.673L643.284 17.6847H643.091L635.702 38.5ZM636.861 28.8409H649.514V31.4972H636.861V28.8409ZM668.212 38.8864C666.473 38.8864 664.976 38.4759 663.72 37.6548C662.464 36.8338 661.499 35.7029 660.822 34.2621C660.146 32.8213 659.808 31.1752 659.808 29.3239C659.808 27.4403 660.154 25.7782 660.847 24.3374C661.547 22.8885 662.521 21.7576 663.768 20.9446C665.024 20.1236 666.489 19.7131 668.163 19.7131C669.467 19.7131 670.642 19.9545 671.689 20.4375C672.735 20.9205 673.593 21.5966 674.261 22.4659C674.929 23.3352 675.343 24.3494 675.504 25.5085H672.655C672.437 24.6634 671.955 23.9148 671.206 23.2628C670.465 22.6027 669.467 22.2727 668.212 22.2727C667.101 22.2727 666.127 22.5625 665.29 23.142C664.461 23.7135 663.813 24.5225 663.346 25.5689C662.887 26.6072 662.658 27.8267 662.658 29.2273C662.658 30.66 662.883 31.9077 663.334 32.9702C663.793 34.0327 664.437 34.8577 665.266 35.4453C666.103 36.0329 667.085 36.3267 668.212 36.3267C668.952 36.3267 669.624 36.1979 670.228 35.9403C670.832 35.6828 671.343 35.3125 671.761 34.8295C672.18 34.3466 672.478 33.767 672.655 33.0909H675.504C675.343 34.1856 674.945 35.1716 674.309 36.049C673.681 36.9183 672.848 37.6106 671.81 38.1257C670.779 38.6328 669.58 38.8864 668.212 38.8864ZM691.815 19.9545V22.3693H682.204V19.9545H691.815ZM685.005 15.5114H687.855V33.1875C687.855 33.9924 687.972 34.5961 688.205 34.9986C688.446 35.393 688.752 35.6586 689.123 35.7955C689.501 35.9242 689.899 35.9886 690.318 35.9886C690.632 35.9886 690.889 35.9725 691.091 35.9403C691.292 35.9001 691.453 35.8679 691.574 35.8438L692.153 38.4034C691.96 38.4759 691.69 38.5483 691.344 38.6207C690.998 38.7012 690.559 38.7415 690.028 38.7415C689.223 38.7415 688.434 38.5684 687.662 38.2223C686.897 37.8762 686.261 37.349 685.754 36.6406C685.255 35.9323 685.005 35.0388 685.005 33.9602V15.5114ZM699.501 38.5V19.9545H702.351V38.5H699.501ZM700.95 16.8636C700.395 16.8636 699.916 16.6745 699.513 16.2962C699.119 15.9179 698.922 15.4631 698.922 14.9318C698.922 14.4006 699.119 13.9458 699.513 13.5675C699.916 13.1892 700.395 13 700.95 13C701.506 13 701.98 13.1892 702.375 13.5675C702.777 13.9458 702.979 14.4006 702.979 14.9318C702.979 15.4631 702.777 15.9179 702.375 16.2962C701.98 16.6745 701.506 16.8636 700.95 16.8636ZM718.504 38.8864C716.829 38.8864 715.361 38.4879 714.097 37.6911C712.841 36.8942 711.859 35.7794 711.151 34.3466C710.45 32.9138 710.1 31.2396 710.1 29.3239C710.1 27.392 710.45 25.7057 711.151 24.2649C711.859 22.8241 712.841 21.7053 714.097 20.9084C715.361 20.1115 716.829 19.7131 718.504 19.7131C720.178 19.7131 721.643 20.1115 722.899 20.9084C724.162 21.7053 725.144 22.8241 725.845 24.2649C726.553 25.7057 726.907 27.392 726.907 29.3239C726.907 31.2396 726.553 32.9138 725.845 34.3466C725.144 35.7794 724.162 36.8942 722.899 37.6911C721.643 38.4879 720.178 38.8864 718.504 38.8864ZM718.504 36.3267C719.776 36.3267 720.822 36.0007 721.643 35.3487C722.464 34.6967 723.072 33.8395 723.466 32.777C723.861 31.7145 724.058 30.5634 724.058 29.3239C724.058 28.0843 723.861 26.9292 723.466 25.8587C723.072 24.7881 722.464 23.9228 721.643 23.2628C720.822 22.6027 719.776 22.2727 718.504 22.2727C717.232 22.2727 716.186 22.6027 715.365 23.2628C714.544 23.9228 713.936 24.7881 713.541 25.8587C713.147 26.9292 712.95 28.0843 712.95 29.3239C712.95 30.5634 713.147 31.7145 713.541 32.777C713.936 33.8395 714.544 34.6967 715.365 35.3487C716.186 36.0007 717.232 36.3267 718.504 36.3267ZM737.506 27.3438V38.5H734.657V19.9545H737.41V22.8523H737.651C738.086 21.9105 738.746 21.1539 739.631 20.5824C740.517 20.0028 741.66 19.7131 743.06 19.7131C744.316 19.7131 745.415 19.9706 746.356 20.4858C747.298 20.9929 748.031 21.7656 748.554 22.804C749.077 23.8343 749.339 25.1383 749.339 26.7159V38.5H746.489V26.9091C746.489 25.4522 746.111 24.3172 745.354 23.5043C744.598 22.6832 743.559 22.2727 742.239 22.2727C741.33 22.2727 740.517 22.4699 739.8 22.8643C739.092 23.2588 738.532 23.8343 738.122 24.5909C737.711 25.3475 737.506 26.2652 737.506 27.3438Z" fill="#F5F5F5"/>
<path d="M383.468 87.5V62.7727H391.823C393.755 62.7727 395.34 63.1027 396.58 63.7628C397.82 64.4148 398.737 65.3123 399.333 66.4553C399.929 67.5982 400.226 68.8982 400.226 70.3551C400.226 71.812 399.929 73.1039 399.333 74.2308C398.737 75.3577 397.824 76.2431 396.592 76.8871C395.361 77.523 393.787 77.8409 391.871 77.8409H385.11V75.1364H391.775C393.095 75.1364 394.157 74.9432 394.962 74.5568C395.775 74.1705 396.363 73.6231 396.725 72.9148C397.095 72.1984 397.28 71.3452 397.28 70.3551C397.28 69.3651 397.095 68.4998 396.725 67.7592C396.355 67.0187 395.763 66.4472 394.95 66.0447C394.137 65.6342 393.063 65.429 391.726 65.429H386.462V87.5H383.468ZM395.107 76.392L401.192 87.5H397.715L391.726 76.392H395.107ZM417.877 79.9176V68.9545H420.726V87.5H417.877V84.3608H417.684C417.249 85.3026 416.573 86.1035 415.655 86.7635C414.738 87.4155 413.579 87.7415 412.178 87.7415C411.019 87.7415 409.989 87.4879 409.087 86.9808C408.186 86.4657 407.477 85.6929 406.962 84.6626C406.447 83.6243 406.19 82.3163 406.19 80.7386V68.9545H409.039V80.5455C409.039 81.8977 409.417 82.9763 410.174 83.7812C410.939 84.5862 411.913 84.9886 413.096 84.9886C413.804 84.9886 414.525 84.8075 415.257 84.4453C415.998 84.0831 416.617 83.5277 417.116 82.7791C417.623 82.0305 417.877 81.0767 417.877 79.9176ZM430.155 76.3438V87.5H427.305V68.9545H430.058V71.8523H430.3C430.734 70.9105 431.394 70.1539 432.28 69.5824C433.165 69.0028 434.308 68.7131 435.709 68.7131C436.964 68.7131 438.063 68.9706 439.005 69.4858C439.947 69.9929 440.679 70.7656 441.202 71.804C441.726 72.8343 441.987 74.1383 441.987 75.7159V87.5H439.138V75.9091C439.138 74.4522 438.759 73.3172 438.003 72.5043C437.246 71.6832 436.208 71.2727 434.888 71.2727C433.978 71.2727 433.165 71.4699 432.449 71.8643C431.741 72.2588 431.181 72.8343 430.771 73.5909C430.36 74.3475 430.155 75.2652 430.155 76.3438ZM456.619 68.9545V71.3693H447.009V68.9545H456.619ZM449.81 64.5114H452.659V82.1875C452.659 82.9924 452.776 83.5961 453.009 83.9986C453.251 84.393 453.557 84.6586 453.927 84.7955C454.305 84.9242 454.704 84.9886 455.122 84.9886C455.436 84.9886 455.694 84.9725 455.895 84.9403C456.096 84.9001 456.257 84.8679 456.378 84.8438L456.957 87.4034C456.764 87.4759 456.495 87.5483 456.149 87.6207C455.802 87.7012 455.364 87.7415 454.832 87.7415C454.028 87.7415 453.239 87.5684 452.466 87.2223C451.701 86.8762 451.065 86.349 450.558 85.6406C450.059 84.9323 449.81 84.0388 449.81 82.9602V64.5114ZM462.266 87.5V68.9545H465.115V87.5H462.266ZM463.714 65.8636C463.159 65.8636 462.68 65.6745 462.278 65.2962C461.883 64.9179 461.686 64.4631 461.686 63.9318C461.686 63.4006 461.883 62.9458 462.278 62.5675C462.68 62.1892 463.159 62 463.714 62C464.27 62 464.745 62.1892 465.139 62.5675C465.542 62.9458 465.743 63.4006 465.743 63.9318C465.743 64.4631 465.542 64.9179 465.139 65.2962C464.745 65.6745 464.27 65.8636 463.714 65.8636ZM471.694 87.5V68.9545H474.447V71.8523H474.688C475.075 70.8622 475.698 70.0935 476.56 69.5462C477.421 68.9908 478.455 68.7131 479.663 68.7131C480.886 68.7131 481.904 68.9908 482.717 69.5462C483.538 70.0935 484.178 70.8622 484.637 71.8523H484.83C485.305 70.8944 486.018 70.1338 486.967 69.5703C487.917 68.9988 489.056 68.7131 490.384 68.7131C492.042 68.7131 493.399 69.2322 494.453 70.2706C495.508 71.3009 496.035 72.9067 496.035 75.0881V87.5H493.185V75.0881C493.185 73.7197 492.811 72.7417 492.063 72.1541C491.314 71.5665 490.433 71.2727 489.418 71.2727C488.114 71.2727 487.104 71.6671 486.388 72.456C485.671 73.2367 485.313 74.2268 485.313 75.4261V87.5H482.416V74.7983C482.416 73.7438 482.073 72.8946 481.389 72.2507C480.705 71.5987 479.824 71.2727 478.745 71.2727C478.005 71.2727 477.312 71.4699 476.668 71.8643C476.033 72.2588 475.517 72.8061 475.123 73.5064C474.737 74.1986 474.543 74.9995 474.543 75.9091V87.5H471.694ZM510.38 87.8864C508.593 87.8864 507.052 87.492 505.756 86.7031C504.468 85.9062 503.474 84.7955 502.774 83.3707C502.082 81.938 501.735 80.2718 501.735 78.3722C501.735 76.4725 502.082 74.7983 502.774 73.3494C503.474 71.8925 504.448 70.7576 505.696 69.9446C506.951 69.1236 508.416 68.7131 510.091 68.7131C511.056 68.7131 512.01 68.8741 512.952 69.196C513.894 69.518 514.751 70.0412 515.524 70.7656C516.297 71.482 516.912 72.4318 517.371 73.6151C517.83 74.7983 518.059 76.2552 518.059 77.9858V79.1932H503.764V76.7301H515.162C515.162 75.6837 514.952 74.75 514.534 73.929C514.123 73.108 513.536 72.46 512.771 71.9851C512.014 71.5102 511.121 71.2727 510.091 71.2727C508.956 71.2727 507.974 71.5545 507.145 72.1179C506.324 72.6733 505.692 73.3977 505.249 74.2912C504.806 75.1847 504.585 76.1425 504.585 77.1648V78.8068C504.585 80.2074 504.826 81.3946 505.309 82.3686C505.8 83.3345 506.48 84.071 507.35 84.5781C508.219 85.0772 509.229 85.3267 510.38 85.3267C511.129 85.3267 511.805 85.2221 512.409 85.0128C513.02 84.7955 513.548 84.4735 513.99 84.0469C514.433 83.6122 514.775 83.0729 515.017 82.429L517.77 83.2017C517.48 84.1354 516.993 84.9564 516.309 85.6648C515.624 86.3651 514.779 86.9124 513.773 87.3068C512.767 87.6932 511.636 87.8864 510.38 87.8864ZM535.063 62.7727H538.637L547.04 83.2983H547.33L555.733 62.7727H559.307V87.5H556.506V68.7131H556.264L548.537 87.5H545.833L538.105 68.7131H537.864V87.5H535.063V62.7727ZM571.742 87.9347C570.567 87.9347 569.5 87.7133 568.542 87.2706C567.584 86.8198 566.824 86.1719 566.26 85.3267C565.697 84.4735 565.415 83.4432 565.415 82.2358C565.415 81.1733 565.624 80.312 566.043 79.652C566.461 78.9839 567.021 78.4607 567.721 78.0824C568.421 77.7041 569.194 77.4223 570.039 77.2372C570.893 77.044 571.75 76.8911 572.611 76.7784C573.738 76.6335 574.652 76.5249 575.352 76.4524C576.06 76.3719 576.575 76.2391 576.897 76.054C577.227 75.8688 577.392 75.5469 577.392 75.0881V74.9915C577.392 73.8002 577.066 72.8745 576.414 72.2145C575.77 71.5545 574.792 71.2244 573.48 71.2244C572.12 71.2244 571.054 71.5223 570.281 72.1179C569.508 72.7135 568.965 73.3494 568.651 74.0256L565.946 73.0597C566.429 71.9328 567.073 71.0554 567.878 70.4276C568.691 69.7917 569.577 69.349 570.534 69.0994C571.5 68.8419 572.45 68.7131 573.384 68.7131C573.979 68.7131 574.664 68.7855 575.436 68.9304C576.217 69.0672 576.97 69.353 577.694 69.7876C578.427 70.2223 579.034 70.8783 579.517 71.7557C580 72.633 580.242 73.8082 580.242 75.2812V87.5H577.392V84.9886H577.247C577.054 85.3911 576.732 85.8217 576.282 86.2805C575.831 86.7393 575.231 87.1297 574.483 87.4517C573.734 87.7737 572.82 87.9347 571.742 87.9347ZM572.176 85.375C573.303 85.375 574.253 85.1536 575.026 84.7109C575.807 84.2682 576.394 83.6967 576.789 82.9964C577.191 82.2962 577.392 81.5597 577.392 80.7869V78.179C577.272 78.3239 577.006 78.4567 576.595 78.5774C576.193 78.6901 575.726 78.7907 575.195 78.8793C574.672 78.9598 574.161 79.0322 573.661 79.0966C573.17 79.1529 572.772 79.2012 572.466 79.2415C571.726 79.3381 571.033 79.495 570.389 79.7124C569.754 79.9216 569.238 80.2396 568.844 80.6662C568.458 81.0848 568.264 81.6562 568.264 82.3807C568.264 83.3707 568.631 84.1193 569.363 84.6264C570.104 85.1255 571.041 85.375 572.176 85.375ZM589.652 76.3438V87.5H586.803V68.9545H589.555V71.8523H589.797C590.232 70.9105 590.892 70.1539 591.777 69.5824C592.662 69.0028 593.805 68.7131 595.206 68.7131C596.462 68.7131 597.56 68.9706 598.502 69.4858C599.444 69.9929 600.176 70.7656 600.7 71.804C601.223 72.8343 601.484 74.1383 601.484 75.7159V87.5H598.635V75.9091C598.635 74.4522 598.257 73.3172 597.5 72.5043C596.743 71.6832 595.705 71.2727 594.385 71.2727C593.475 71.2727 592.662 71.4699 591.946 71.8643C591.238 72.2588 590.678 72.8343 590.268 73.5909C589.857 74.3475 589.652 75.2652 589.652 76.3438ZM613.509 87.9347C612.333 87.9347 611.267 87.7133 610.309 87.2706C609.351 86.8198 608.591 86.1719 608.027 85.3267C607.464 84.4735 607.182 83.4432 607.182 82.2358C607.182 81.1733 607.391 80.312 607.81 79.652C608.228 78.9839 608.788 78.4607 609.488 78.0824C610.188 77.7041 610.961 77.4223 611.806 77.2372C612.659 77.044 613.517 76.8911 614.378 76.7784C615.505 76.6335 616.418 76.5249 617.119 76.4524C617.827 76.3719 618.342 76.2391 618.664 76.054C618.994 75.8688 619.159 75.5469 619.159 75.0881V74.9915C619.159 73.8002 618.833 72.8745 618.181 72.2145C617.537 71.5545 616.559 71.2244 615.247 71.2244C613.887 71.2244 612.82 71.5223 612.048 72.1179C611.275 72.7135 610.732 73.3494 610.418 74.0256L607.713 73.0597C608.196 71.9328 608.84 71.0554 609.645 70.4276C610.458 69.7917 611.343 69.349 612.301 69.0994C613.267 68.8419 614.217 68.7131 615.151 68.7131C615.746 68.7131 616.431 68.7855 617.203 68.9304C617.984 69.0672 618.737 69.353 619.461 69.7876C620.194 70.2223 620.801 70.8783 621.284 71.7557C621.767 72.633 622.009 73.8082 622.009 75.2812V87.5H619.159V84.9886H619.014C618.821 85.3911 618.499 85.8217 618.048 86.2805C617.598 86.7393 616.998 87.1297 616.249 87.4517C615.501 87.7737 614.587 87.9347 613.509 87.9347ZM613.943 85.375C615.07 85.375 616.02 85.1536 616.793 84.7109C617.574 84.2682 618.161 83.6967 618.556 82.9964C618.958 82.2962 619.159 81.5597 619.159 80.7869V78.179C619.038 78.3239 618.773 78.4567 618.362 78.5774C617.96 78.6901 617.493 78.7907 616.962 78.8793C616.439 78.9598 615.927 79.0322 615.428 79.0966C614.937 79.1529 614.539 79.2012 614.233 79.2415C613.493 79.3381 612.8 79.495 612.156 79.7124C611.52 79.9216 611.005 80.2396 610.611 80.6662C610.225 81.0848 610.031 81.6562 610.031 82.3807C610.031 83.3707 610.398 84.1193 611.13 84.6264C611.871 85.1255 612.808 85.375 613.943 85.375ZM634.695 94.8409C633.319 94.8409 632.136 94.6638 631.146 94.3097C630.155 93.9635 629.33 93.5047 628.67 92.9332C628.018 92.3698 627.499 91.7661 627.113 91.1222L629.383 89.5284C629.64 89.8665 629.966 90.2528 630.361 90.6875C630.755 91.1302 631.294 91.5125 631.979 91.8345C632.671 92.1645 633.576 92.3295 634.695 92.3295C636.192 92.3295 637.428 91.9673 638.402 91.2429C639.376 90.5185 639.863 89.3835 639.863 87.8381V84.071H639.621C639.412 84.4091 639.114 84.8277 638.728 85.3267C638.35 85.8177 637.802 86.2564 637.086 86.6428C636.378 87.0211 635.42 87.2102 634.212 87.2102C632.715 87.2102 631.371 86.8561 630.18 86.1477C628.996 85.4394 628.059 84.4091 627.366 83.0568C626.682 81.7045 626.34 80.0625 626.34 78.1307C626.34 76.2311 626.674 74.5769 627.342 73.1683C628.01 71.7517 628.94 70.657 630.131 69.8842C631.323 69.1035 632.699 68.7131 634.261 68.7131C635.468 68.7131 636.426 68.9143 637.134 69.3168C637.851 69.7112 638.398 70.1619 638.776 70.669C639.163 71.1681 639.46 71.5786 639.67 71.9006H639.959V68.9545H642.712V88.0312C642.712 89.625 642.35 90.9209 641.626 91.919C640.909 92.9252 639.943 93.6617 638.728 94.1286C637.521 94.6035 636.176 94.8409 634.695 94.8409ZM634.599 84.6506C635.742 84.6506 636.708 84.389 637.496 83.8658C638.285 83.3426 638.885 82.59 639.295 81.608C639.706 80.6259 639.911 79.4508 639.911 78.0824C639.911 76.7462 639.71 75.567 639.307 74.5447C638.905 73.5225 638.309 72.7216 637.521 72.142C636.732 71.5625 635.758 71.2727 634.599 71.2727C633.391 71.2727 632.385 71.5786 631.58 72.1903C630.783 72.8021 630.184 73.6231 629.781 74.6534C629.387 75.6837 629.19 76.8267 629.19 78.0824C629.19 79.3703 629.391 80.5092 629.793 81.4993C630.204 82.4813 630.807 83.254 631.604 83.8175C632.409 84.3729 633.407 84.6506 634.599 84.6506ZM657.064 87.8864C655.277 87.8864 653.735 87.492 652.439 86.7031C651.152 85.9062 650.158 84.7955 649.457 83.3707C648.765 81.938 648.419 80.2718 648.419 78.3722C648.419 76.4725 648.765 74.7983 649.457 73.3494C650.158 71.8925 651.131 70.7576 652.379 69.9446C653.635 69.1236 655.1 68.7131 656.774 68.7131C657.74 68.7131 658.694 68.8741 659.635 69.196C660.577 69.518 661.434 70.0412 662.207 70.7656C662.98 71.482 663.596 72.4318 664.055 73.6151C664.513 74.7983 664.743 76.2552 664.743 77.9858V79.1932H650.447V76.7301H661.845C661.845 75.6837 661.636 74.75 661.217 73.929C660.807 73.108 660.219 72.46 659.454 71.9851C658.698 71.5102 657.804 71.2727 656.774 71.2727C655.639 71.2727 654.657 71.5545 653.828 72.1179C653.007 72.6733 652.375 73.3977 651.932 74.2912C651.49 75.1847 651.268 76.1425 651.268 77.1648V78.8068C651.268 80.2074 651.51 81.3946 651.993 82.3686C652.484 83.3345 653.164 84.071 654.033 84.5781C654.903 85.0772 655.913 85.3267 657.064 85.3267C657.812 85.3267 658.488 85.2221 659.092 85.0128C659.704 84.7955 660.231 84.4735 660.674 84.0469C661.117 83.6122 661.459 83.0729 661.7 82.429L664.453 83.2017C664.163 84.1354 663.676 84.9564 662.992 85.6648C662.308 86.3651 661.463 86.9124 660.457 87.3068C659.45 87.6932 658.319 87.8864 657.064 87.8864ZM670.437 87.5V68.9545H673.19V71.8523H673.432C673.818 70.8622 674.442 70.0935 675.303 69.5462C676.164 68.9908 677.199 68.7131 678.406 68.7131C679.629 68.7131 680.648 68.9908 681.461 69.5462C682.282 70.0935 682.922 70.8622 683.38 71.8523H683.574C684.049 70.8944 684.761 70.1338 685.711 69.5703C686.66 68.9988 687.799 68.7131 689.128 68.7131C690.786 68.7131 692.142 69.2322 693.196 70.2706C694.251 71.3009 694.778 72.9067 694.778 75.0881V87.5H691.929V75.0881C691.929 73.7197 691.554 72.7417 690.806 72.1541C690.057 71.5665 689.176 71.2727 688.162 71.2727C686.858 71.2727 685.848 71.6671 685.131 72.456C684.415 73.2367 684.057 74.2268 684.057 75.4261V87.5H681.159V74.7983C681.159 73.7438 680.817 72.8946 680.133 72.2507C679.448 71.5987 678.567 71.2727 677.488 71.2727C676.748 71.2727 676.056 71.4699 675.412 71.8643C674.776 72.2588 674.261 72.8061 673.866 73.5064C673.48 74.1986 673.287 74.9995 673.287 75.9091V87.5H670.437ZM709.124 87.8864C707.337 87.8864 705.795 87.492 704.499 86.7031C703.211 85.9062 702.217 84.7955 701.517 83.3707C700.825 81.938 700.479 80.2718 700.479 78.3722C700.479 76.4725 700.825 74.7983 701.517 73.3494C702.217 71.8925 703.191 70.7576 704.439 69.9446C705.695 69.1236 707.16 68.7131 708.834 68.7131C709.8 68.7131 710.754 68.8741 711.695 69.196C712.637 69.518 713.494 70.0412 714.267 70.7656C715.04 71.482 715.656 72.4318 716.114 73.6151C716.573 74.7983 716.803 76.2552 716.803 77.9858V79.1932H702.507V76.7301H713.905C713.905 75.6837 713.696 74.75 713.277 73.929C712.867 73.108 712.279 72.46 711.514 71.9851C710.758 71.5102 709.864 71.2727 708.834 71.2727C707.699 71.2727 706.717 71.5545 705.888 72.1179C705.067 72.6733 704.435 73.3977 703.992 74.2912C703.55 75.1847 703.328 76.1425 703.328 77.1648V78.8068C703.328 80.2074 703.57 81.3946 704.053 82.3686C704.544 83.3345 705.224 84.071 706.093 84.5781C706.962 85.0772 707.973 85.3267 709.124 85.3267C709.872 85.3267 710.548 85.2221 711.152 85.0128C711.764 84.7955 712.291 84.4735 712.734 84.0469C713.176 83.6122 713.518 83.0729 713.76 82.429L716.513 83.2017C716.223 84.1354 715.736 84.9564 715.052 85.6648C714.368 86.3651 713.523 86.9124 712.516 87.3068C711.51 87.6932 710.379 87.8864 709.124 87.8864ZM725.347 76.3438V87.5H722.497V68.9545H725.25V71.8523H725.491C725.926 70.9105 726.586 70.1539 727.472 69.5824C728.357 69.0028 729.5 68.7131 730.9 68.7131C732.156 68.7131 733.255 68.9706 734.197 69.4858C735.138 69.9929 735.871 70.7656 736.394 71.804C736.917 72.8343 737.179 74.1383 737.179 75.7159V87.5H734.329V75.9091C734.329 74.4522 733.951 73.3172 733.195 72.5043C732.438 71.6832 731.4 71.2727 730.079 71.2727C729.17 71.2727 728.357 71.4699 727.641 71.8643C726.932 72.2588 726.373 72.8343 725.962 73.5909C725.552 74.3475 725.347 75.2652 725.347 76.3438ZM751.811 68.9545V71.3693H742.2V68.9545H751.811ZM745.001 64.5114H747.851V82.1875C747.851 82.9924 747.968 83.5961 748.201 83.9986C748.443 84.393 748.748 84.6586 749.119 84.7955C749.497 84.9242 749.895 84.9886 750.314 84.9886C750.628 84.9886 750.885 84.9725 751.087 84.9403C751.288 84.9001 751.449 84.8679 751.57 84.8438L752.149 87.4034C751.956 87.4759 751.686 87.5483 751.34 87.6207C750.994 87.7012 750.555 87.7415 750.024 87.7415C749.219 87.7415 748.43 87.5684 747.658 87.2223C746.893 86.8762 746.257 86.349 745.75 85.6406C745.251 84.9323 745.001 84.0388 745.001 82.9602V64.5114Z" fill="#F5F5F5"/>
</svg>
